<svg xmlns="http://www.w3.org/2000/svg" viewBox="0 0 100 100">
  <defs>
    <linearGradient id="potteryGrad" x1="0%" y1="0%" x2="100%" y2="100%">
      <stop offset="0%" stop-color="#D4C4A8" />
      <stop offset="50%" stop-color="#8B4513" />
      <stop offset="100%" stop-color="#5D2E0D" />
    </linearGradient>
  </defs>
  <path d="M50 15 C35 25, 25 40, 25 55 C25 75, 35 85, 50 85 C65 85, 75 75, 75 55 C75 40, 65 25, 50 15 Z" fill="url(#potteryGrad)" stroke="#3E2723" stroke-width="2"/>
  <ellipse cx="50" cy="15" rx="25" ry="6" fill="#B8956E" stroke="#3E2723" stroke-width="1.5"/>
  <path d="M50 85 C35 85, 28 78, 28 65 L28 55 C28 42, 35 32, 50 32 C65 32, 72 42, 72 55 L72 65 C72 78, 65 85, 50 85 Z" fill="#8B4513" opacity="0.5"/>
</svg>
